<svg width="124" height="124" viewBox="0 0 124 124" fill="none" xmlns="http://www.w3.org/2000/svg">
<path d="M113.39 64C113.39 74.5121 110.273 84.7881 104.433 93.5286C98.5925 102.269 90.2916 109.081 80.5797 113.104C70.8679 117.127 60.1811 118.18 49.8711 116.129C39.561 114.078 30.0905 109.016 22.6574 101.583C15.2242 94.1496 10.1622 84.6791 8.11137 74.369C6.06057 64.059 7.11312 53.3723 11.1359 43.6604C15.1587 33.9485 21.9711 25.6476 30.7116 19.8074C39.452 13.9672 49.728 10.85 60.2401 10.85C62.339 10.8469 64.4361 10.9705 66.5201 11.22C79.4355 12.7634 91.3375 18.9867 99.9744 28.7126C108.611 38.4386 113.384 50.9927 113.39 64Z" fill="#007EE9" stroke="#4A306D" stroke-width="4" stroke-linecap="round" stroke-linejoin="round"/>
<path d="M98.0898 59.13V91.21C98.0898 93.0665 97.3523 94.847 96.0395 96.1597C94.7268 97.4725 92.9463 98.21 91.0898 98.21H87.9998V107.33C81.1135 111.542 73.3592 114.133 65.3238 114.905C57.2884 115.678 49.1826 114.613 41.6198 111.79V90C37.7598 90 37.3898 89.82 37.3898 86L31.5298 56.15C31.5298 56.15 31.5298 56.08 31.5298 56.04C31.5479 54.3708 32.0046 52.7358 32.8541 51.2988C33.7036 49.8619 34.9159 48.6735 36.3696 47.853C37.8233 47.0324 39.4671 46.6085 41.1363 46.6238C42.8055 46.6391 44.4414 47.093 45.8798 47.94C46.2773 46.5061 47.0067 45.1859 48.0091 44.0862C49.0115 42.9865 50.2587 42.1382 51.6498 41.61C53.5818 40.8738 55.7012 40.7879 57.6864 41.3654C59.6716 41.9429 61.4142 43.1523 62.6498 44.81L66.8898 34.31L61.2198 21.54C61.2181 21.5067 61.2181 21.4733 61.2198 21.44C60.3324 19.1144 60.39 16.5339 61.3805 14.2503C62.3709 11.9667 64.2155 10.1613 66.5198 9.22C76.1995 10.3688 85.372 14.1762 93.0198 20.22C92.8866 20.8228 92.6888 21.4096 92.4298 21.97L87.5698 34L97.4898 56.32C97.8839 57.2045 98.0883 58.1617 98.0898 59.13Z" fill="#4A306D"/>
<path d="M91.8699 50.67L81.9999 28.35L86.8599 16.35C87.4175 15.1257 87.704 13.7953 87.6999 12.45C87.7245 10.535 87.171 8.65704 86.1115 7.06154C85.0521 5.46605 83.5362 4.22718 81.7616 3.50678C79.9871 2.78638 78.0365 2.61796 76.1648 3.02351C74.293 3.42905 72.5871 4.38972 71.2699 5.77999C70.385 4.87169 69.3278 4.1491 68.1602 3.65456C66.9925 3.16003 65.7379 2.9035 64.4699 2.89999C63.3146 2.89583 62.1685 3.10606 61.0899 3.51999C58.7262 4.41862 56.8159 6.21897 55.779 8.52537C54.742 10.8318 54.6632 13.4555 55.5599 15.82C55.5582 15.8533 55.5582 15.8867 55.5599 15.92L61.2299 28.69L56.9999 39.19C55.763 37.534 54.0198 36.3266 52.0347 35.7509C50.0495 35.1753 47.9308 35.2627 45.9999 36C44.6088 36.5282 43.3616 37.3765 42.3592 38.4762C41.3568 39.5759 40.6274 40.8961 40.2299 42.33C38.7915 41.483 37.1556 41.0291 35.4864 41.0138C33.8172 40.9985 32.1734 41.4224 30.7197 42.243C29.266 43.0635 28.0537 44.2518 27.2042 45.6888C26.3547 47.1258 25.898 48.7608 25.8799 50.43C25.8799 50.43 25.8799 50.5 25.8799 50.54V85.59C25.8799 87.4465 26.6174 89.227 27.9301 90.5397C29.2429 91.8525 31.0234 92.59 32.8799 92.59H35.9999V120C35.9999 120.53 36.2106 121.039 36.5857 121.414C36.9607 121.789 37.4695 122 37.9999 122H80.3799C80.9103 122 81.419 121.789 81.7941 121.414C82.1692 121.039 82.3799 120.53 82.3799 120V92.59H85.4699C87.3264 92.59 89.1069 91.8525 90.4196 90.5397C91.7324 89.227 92.4699 87.4465 92.4699 85.59V53.51C92.4726 52.5316 92.2681 51.5637 91.8699 50.67ZM61.8699 73.5C60.4032 73.5 58.9967 72.9174 57.9596 71.8803C56.9225 70.8432 56.3399 69.4366 56.3399 67.97C56.3399 66.5033 56.9225 65.0968 57.9596 64.0597C58.9967 63.0226 60.4032 62.44 61.8699 62.44H88.4699V73.5H61.8699ZM80.3799 7.34999C81.0476 7.6511 81.6491 8.08139 82.1497 8.61606C82.6503 9.15073 83.0401 9.7792 83.2967 10.4652C83.5533 11.1513 83.6715 11.8813 83.6446 12.6133C83.6177 13.3453 83.4461 14.0646 83.1399 14.73L79.6899 23.26L73.5099 9.34999C74.231 8.25511 75.3182 7.45262 76.577 7.08617C77.8357 6.71972 79.1838 6.81324 80.3799 7.34999ZM62.5199 7.24999C63.8913 6.73681 65.4101 6.78745 66.7443 7.39083C68.0785 7.99422 69.1196 9.10127 69.6399 10.47V10.57L77.8899 29.15L88.1499 52.25C88.3211 52.6339 88.4097 53.0496 88.4099 53.47V58.4H78.8599L59.2799 14.35C58.7767 12.9783 58.8346 11.4635 59.4412 10.1343C60.0478 8.80512 61.154 7.76872 62.5199 7.24999ZM74.5199 58.44H65.4099C65.3499 58.24 65.2999 58.05 65.2199 57.85L59.3899 44L63.5299 33.74L74.5199 58.44ZM47.5199 39.73C48.1588 39.4884 48.8368 39.3663 49.5199 39.37C50.6338 39.4024 51.713 39.7646 52.6209 40.4108C53.5288 41.057 54.2245 41.9581 54.6199 43L61.1399 58.47C59.1786 58.6175 57.3115 59.3701 55.7961 60.6239C54.2808 61.8777 53.1919 63.571 52.6799 65.47C51.9944 64.8615 51.4661 64.0965 51.1399 63.24L44.2499 46.87C43.7322 45.4985 43.7781 43.9779 44.3777 42.6402C44.9772 41.3024 46.0817 40.2563 47.4499 39.73H47.5199ZM30.3999 48.27C30.6968 47.6063 31.1216 47.0076 31.6501 46.5083C32.1786 46.009 32.8004 45.6187 33.4799 45.36C34.1191 45.1195 34.7969 44.9975 35.4799 45C36.6133 44.9978 37.7198 45.3452 38.6486 45.9948C39.5773 46.6444 40.2832 47.5646 40.6699 48.63L47.5299 65C47.8206 65.6859 47.9698 66.4234 47.9684 67.1683C47.967 67.9133 47.8152 68.6503 47.5219 69.3351C47.2287 70.0198 46.8001 70.6383 46.2619 71.1534C45.7237 71.6684 45.087 72.0695 44.39 72.3324C43.693 72.5952 42.95 72.7146 42.2058 72.6833C41.4615 72.6519 40.7312 72.4705 40.0588 72.15C39.3863 71.8294 38.7856 71.3763 38.2926 70.8178C37.7996 70.2593 37.4245 69.607 37.1899 68.9V68.84L30.2799 52.5C30.0169 51.8225 29.892 51.0993 29.9126 50.3729C29.9332 49.6464 30.0989 48.9314 30.3999 48.27ZM29.9099 85.59V61.92L33.4699 70.36C34.1838 72.2315 35.4705 73.8298 37.1464 74.9269C38.8223 76.024 40.8018 76.564 42.8026 76.4698C44.8035 76.3756 46.7235 75.652 48.2888 74.4022C49.8542 73.1524 50.985 71.4403 51.5199 69.51C51.84 69.7106 52.1742 69.8877 52.5199 70.04C52.994 72.154 54.1728 74.0439 55.8628 75.3995C57.5527 76.7551 59.6534 77.4958 61.8199 77.5H64.8199C62.268 80.6821 60.6758 84.5255 60.2299 88.58H32.9099C32.116 88.58 31.3544 88.2653 30.7921 87.7048C30.2298 87.1444 29.9125 86.3839 29.9099 85.59ZM78.3799 118H39.9999V107.3H78.3799V118ZM78.3799 103.3H39.9999V92.59H78.3799V103.3ZM85.4699 88.61H64.3099C64.9064 84.2659 67.1075 80.3025 70.4799 77.5H88.4799V85.59C88.4799 85.9848 88.402 86.3757 88.2506 86.7404C88.0992 87.105 87.8773 87.4361 87.5977 87.7149C87.318 87.9936 86.9861 88.2143 86.621 88.3645C86.2559 88.5147 85.8647 88.5913 85.4699 88.59V88.61Z" fill="#4A306D"/>
<path d="M78.38 92.59H40V103.28H78.38V92.59Z" fill="#FF8E72"/>
<path d="M78.38 107.28H40V117.98H78.38V107.28Z" fill="#007EE9"/>
<path d="M78.3802 92.59H42.9302V100.35H78.3802V92.59Z" fill="#F6BBCD"/>
<path d="M78.3802 107.28H42.9302V115.05H78.3802V107.28Z" fill="#38E5C4"/>
<path d="M47.6999 68.37C47.6273 68.6545 47.5303 68.9322 47.4099 69.2C47.1131 69.8637 46.6882 70.4624 46.1597 70.9617C45.6312 71.461 45.0094 71.8512 44.3299 72.11L43.8999 72.25C42.5652 72.6345 41.1347 72.5035 39.8919 71.8831C38.6491 71.2626 37.6848 70.1979 37.1899 68.9V68.84L34.5999 62.68L33.8499 60.9L30.3099 52.5C30.0469 51.8225 29.922 51.0993 29.9426 50.3729C29.9632 49.6464 30.1289 48.9315 30.4299 48.27C30.7268 47.6063 31.1517 47.0076 31.6802 46.5083C32.2087 46.009 32.8304 45.6188 33.5099 45.36C33.6836 45.2943 33.8605 45.2376 34.0399 45.19C34.4994 45.0642 34.9736 45.0003 35.4499 45C36.2286 45 36.9985 45.1635 37.7099 45.48C38.8777 45.9998 39.8261 46.9128 40.3899 48.06C40.4768 48.2321 40.5535 48.409 40.6199 48.59L47.5299 65C47.943 66.0768 48.0026 67.2571 47.6999 68.37Z" fill="#FF8E72"/>
<path d="M64.8799 77.5C63.3261 79.4427 62.1246 81.6426 61.3299 84C61.2499 84.24 61.1699 84.48 61.1099 84.72C60.7094 85.9934 60.4348 87.303 60.2899 88.63H32.9099C32.1143 88.63 31.3512 88.3139 30.7886 87.7513C30.226 87.1887 29.9099 86.4256 29.9099 85.63V61.92L33.4699 70.36C33.5799 70.63 33.6899 70.9 33.8199 71.15C34.8674 73.2771 36.6702 74.9373 38.8763 75.8064C41.0823 76.6755 43.5331 76.691 45.7499 75.85C47.1372 75.3126 48.3805 74.4601 49.3819 73.3598C50.3832 72.2595 51.1152 70.9416 51.5199 69.51C51.84 69.7106 52.1742 69.8877 52.5199 70.04V70.16C53.0147 72.2476 54.1986 74.1075 55.8807 75.4393C57.5627 76.7711 59.6445 77.4971 61.7899 77.5H64.8799Z" fill="#FF8E72"/>
<path d="M74.4801 58.44H65.4101C65.3501 58.24 65.3001 58.05 65.2201 57.85L64.0501 55.07L59.3901 44L63.5301 33.74L64.7501 36.49L72.7501 54.49L72.9901 55.03L74.4801 58.44Z" fill="#FF8E72"/>
<path d="M83.6498 12.4C83.65 13.2044 83.476 13.9993 83.1398 14.73L82.3798 16.61L79.6898 23.26L73.5098 9.34999C74.1658 8.35975 75.1233 7.60708 76.2405 7.20341C77.3577 6.79974 78.5751 6.76652 79.7126 7.10867C80.8501 7.45082 81.8473 8.15016 82.5564 9.10315C83.2654 10.0561 83.6488 11.2121 83.6498 12.4Z" fill="#FF8E72"/>
<path d="M88.4701 53.51V58.44H78.8601L59.2801 14.35C59.241 14.2564 59.2109 14.1593 59.1901 14.06C58.7758 12.7143 58.8894 11.2612 59.508 9.99629C60.1265 8.73134 61.2035 7.74938 62.5201 7.25001C62.6934 7.18618 62.8704 7.13275 63.0501 7.09001C63.5122 6.96044 63.9902 6.89648 64.4701 6.90001C65.5916 6.903 66.686 7.24572 67.6089 7.88301C68.5318 8.5203 69.24 9.42225 69.6401 10.47V10.57L77.8901 29.15L85.8901 47.15L86.8401 49.29L88.1701 52.29C88.3551 52.6709 88.4573 53.0867 88.4701 53.51Z" fill="#FF8E72"/>
<path d="M88.4702 62.44V73.5H61.8602C60.3996 73.4974 58.9991 72.9181 57.9634 71.888C56.9277 70.858 56.3408 69.4606 56.3302 68C56.326 67.4843 56.4036 66.9713 56.5602 66.48C56.5846 66.3707 56.618 66.2637 56.6602 66.16C56.934 65.3607 57.3932 64.6377 58.0002 64.05C58.6881 63.3622 59.548 62.8718 60.4902 62.63C60.9525 62.5012 61.4304 62.4373 61.9102 62.44H88.4702Z" fill="#FF8E72"/>
<path d="M88.4701 77.5V85.59C88.4701 86.3856 88.154 87.1487 87.5914 87.7113C87.0288 88.2739 86.2657 88.59 85.4701 88.59H64.3101C64.4806 87.2212 64.8164 85.8781 65.3101 84.59C66.3922 81.8359 68.1535 79.4003 70.4301 77.51L88.4701 77.5Z" fill="#FF8E72"/>
<path d="M47.7002 68.37C46.3781 68.7225 44.9723 68.5732 43.7537 67.951C42.5351 67.3288 41.5899 66.2776 41.1002 65V64.94L38.5102 58.78L34.1902 48.59C33.7727 47.5041 33.7097 46.3139 34.0102 45.19C34.4793 45.0615 34.9637 44.9976 35.4502 45C36.2288 45 36.9987 45.1635 37.7102 45.48C38.8779 45.9998 39.8264 46.9128 40.3902 48.06C40.477 48.2321 40.5538 48.4091 40.6202 48.59L47.5302 65C47.9433 66.0768 48.0028 67.2571 47.7002 68.37Z" fill="#F6BBCD"/>
<path d="M61.1402 58.48C59.1747 58.6276 57.3028 59.3785 55.7802 60.63C55.5602 60.82 55.3402 61.02 55.1302 61.23C53.957 62.3931 53.1119 63.8454 52.6802 65.44C51.9947 64.8315 51.4664 64.0665 51.1402 63.21L48.4702 56.87L44.2502 46.87C43.7325 45.4985 43.7784 43.9779 44.378 42.6402C44.9775 41.3025 46.082 40.2563 47.4502 39.73C47.6302 39.66 47.8202 39.6 48.0002 39.55C48.4608 39.4312 48.9345 39.3707 49.4102 39.37C50.4502 39.373 51.4688 39.6655 52.3519 40.2148C53.235 40.7641 53.9477 41.5484 54.4102 42.48C54.5003 42.6519 54.5804 42.8289 54.6502 43.01L60.2602 56.32L61.1402 58.48Z" fill="#FF8E72"/>
<path d="M60.2302 56.32C59.8043 56.6169 59.406 56.9516 59.0402 57.32C58.3703 57.979 57.8069 58.738 57.3702 59.57C56.8047 59.867 56.2718 60.2223 55.7802 60.63C55.4788 60.2211 55.2333 59.7738 55.0502 59.3L52.3802 53L48.1602 43C47.7364 41.8973 47.6803 40.6872 48.0002 39.55C48.4608 39.4312 48.9345 39.3707 49.4102 39.37C50.4502 39.373 51.4688 39.6655 52.3519 40.2148C53.2351 40.7641 53.9478 41.5484 54.4102 42.48C54.5003 42.6519 54.5804 42.8289 54.6502 43.01L60.2302 56.32Z" fill="#F6BBCD"/>
<path d="M61.1401 58.48C59.8196 58.5673 58.5335 58.9392 57.3701 59.57C57.7947 58.7407 58.3445 57.9818 59.0001 57.32C59.3659 56.9516 59.7642 56.6169 60.1901 56.32L61.1401 58.48Z" fill="#F6BBCD"/>
<path d="M64.8798 77.5C63.326 79.4427 62.1245 81.6427 61.3298 84C61.2498 84.24 61.1698 84.48 61.1098 84.72H36.8198C36.0242 84.72 35.2611 84.4039 34.6985 83.8413C34.1359 83.2787 33.8198 82.5157 33.8198 81.72V71.15C34.8673 73.2771 36.6702 74.9373 38.8762 75.8064C41.0822 76.6755 43.533 76.6911 45.7498 75.85C47.8979 75.0379 49.6757 73.4698 50.7498 71.44C51.417 71.0914 52.0384 70.6615 52.5998 70.16C53.0946 72.2476 54.2786 74.1075 55.9606 75.4393C57.6426 76.7711 59.7244 77.4971 61.8698 77.5H64.8798Z" fill="#F6BBCD"/>
<path d="M72.7398 54.53H69.3198C69.2598 54.33 69.2098 54.14 69.1298 53.94L67.9998 51.16L63.3398 40.16L64.7898 36.56L72.7398 54.53Z" fill="#F6BBCD"/>
<path d="M83.6498 12.4C83.65 13.2044 83.476 13.9993 83.1398 14.73L82.3798 16.61L78.0498 6.86C78.782 6.8534 79.5083 6.99175 80.1867 7.26708C80.8652 7.54242 81.4825 7.94929 82.0031 8.46425C82.5236 8.97921 82.9371 9.59209 83.2197 10.2676C83.5023 10.943 83.6485 11.6678 83.6498 12.4Z" fill="#F6BBCD"/>
<path d="M88.4701 53.51V54.51H82.7701L63.1901 10.44C63.1511 10.3464 63.1209 10.2493 63.1001 10.15C62.7893 9.15608 62.7719 8.09356 63.0501 7.09001C63.5122 6.96044 63.9902 6.89648 64.4701 6.90001C65.5917 6.903 66.686 7.24572 67.6089 7.88301C68.5318 8.5203 69.24 9.42225 69.6401 10.47V10.57L77.8901 29.15L85.8901 47.15L86.8401 49.29L88.1701 52.29C88.3551 52.6709 88.4574 53.0867 88.4701 53.51Z" fill="#F6BBCD"/>
<path d="M88.47 62.44V69.59H65.7699C64.3041 69.5873 62.8991 69.0039 61.8626 67.9674C60.8261 66.9309 60.2426 65.5258 60.24 64.06C60.2355 63.5761 60.3029 63.0941 60.44 62.63C60.9022 62.5012 61.3801 62.4373 61.86 62.44H88.47Z" fill="#F6BBCD"/>
<path d="M88.4702 77.5V84.68H68.2202C68.3908 83.3112 68.7266 81.9681 69.2202 80.68C69.6562 79.5696 70.2058 78.5073 70.8602 77.51L88.4702 77.5Z" fill="#F6BBCD"/>
<path d="M52.5902 70.16C52.0288 70.6615 51.4074 71.0914 50.7402 71.44C51.0701 70.8272 51.3316 70.1799 51.5202 69.51C51.8403 69.7106 52.1745 69.8877 52.5202 70.04L52.5902 70.16Z" fill="#F6BBCD"/>
</svg>
